<mxfile host="app.diagrams.net" modified="2023-11-20T13:06:11.608Z" agent="Mozilla/5.0 (X11; Linux x86_64; rv:109.0) Gecko/20100101 Firefox/119.0" etag="JRsBbrDszjoGENW6-aK2" version="22.1.3" type="github">
  <diagram name="Page-1" id="yC7KV2Ko1jgtMiXsxVH6">
    <mxGraphModel dx="1541" dy="813" grid="0" gridSize="10" guides="1" tooltips="1" connect="1" arrows="1" fold="1" page="0" pageScale="1" pageWidth="850" pageHeight="1100" math="0" shadow="0">
      <root>
        <mxCell id="0" />
        <mxCell id="1" parent="0" />
        <mxCell id="NwfZpaaQpDAw_J0AIX61-4" style="edgeStyle=none;curved=1;rounded=0;orthogonalLoop=1;jettySize=auto;html=1;fontSize=12;startSize=8;endSize=8;" edge="1" parent="1" source="NwfZpaaQpDAw_J0AIX61-1" target="NwfZpaaQpDAw_J0AIX61-3">
          <mxGeometry relative="1" as="geometry" />
        </mxCell>
        <mxCell id="NwfZpaaQpDAw_J0AIX61-11" value="" style="edgeStyle=none;curved=1;rounded=0;orthogonalLoop=1;jettySize=auto;html=1;fontSize=12;startSize=8;endSize=8;" edge="1" parent="1" source="NwfZpaaQpDAw_J0AIX61-1" target="NwfZpaaQpDAw_J0AIX61-10">
          <mxGeometry relative="1" as="geometry" />
        </mxCell>
        <mxCell id="NwfZpaaQpDAw_J0AIX61-29" style="edgeStyle=none;curved=1;rounded=0;orthogonalLoop=1;jettySize=auto;html=1;fontSize=12;startSize=8;endSize=8;" edge="1" parent="1" source="NwfZpaaQpDAw_J0AIX61-1" target="NwfZpaaQpDAw_J0AIX61-28">
          <mxGeometry relative="1" as="geometry" />
        </mxCell>
        <mxCell id="NwfZpaaQpDAw_J0AIX61-1" value="Tabaccheria" style="rhombus;whiteSpace=wrap;html=1;fontSize=16;" vertex="1" parent="1">
          <mxGeometry x="347" y="160" width="136" height="80" as="geometry" />
        </mxCell>
        <mxCell id="NwfZpaaQpDAw_J0AIX61-60" style="edgeStyle=none;curved=1;rounded=0;orthogonalLoop=1;jettySize=auto;html=1;fontSize=12;startSize=8;endSize=8;" edge="1" parent="1" source="NwfZpaaQpDAw_J0AIX61-3" target="NwfZpaaQpDAw_J0AIX61-5">
          <mxGeometry relative="1" as="geometry" />
        </mxCell>
        <mxCell id="NwfZpaaQpDAw_J0AIX61-3" value="&lt;div&gt;Dipendente&lt;/div&gt;" style="rounded=1;whiteSpace=wrap;html=1;fontSize=16;" vertex="1" parent="1">
          <mxGeometry x="551" y="170" width="120" height="60" as="geometry" />
        </mxCell>
        <mxCell id="NwfZpaaQpDAw_J0AIX61-52" value="" style="edgeStyle=none;curved=1;rounded=0;orthogonalLoop=1;jettySize=auto;html=1;fontSize=12;startSize=8;endSize=8;" edge="1" parent="1" source="NwfZpaaQpDAw_J0AIX61-5" target="NwfZpaaQpDAw_J0AIX61-51">
          <mxGeometry relative="1" as="geometry" />
        </mxCell>
        <mxCell id="NwfZpaaQpDAw_J0AIX61-53" value="" style="edgeStyle=none;curved=1;rounded=0;orthogonalLoop=1;jettySize=auto;html=1;fontSize=12;startSize=8;endSize=8;" edge="1" parent="1" source="NwfZpaaQpDAw_J0AIX61-5" target="NwfZpaaQpDAw_J0AIX61-51">
          <mxGeometry relative="1" as="geometry" />
        </mxCell>
        <mxCell id="NwfZpaaQpDAw_J0AIX61-55" style="edgeStyle=none;curved=1;rounded=0;orthogonalLoop=1;jettySize=auto;html=1;fontSize=12;startSize=8;endSize=8;" edge="1" parent="1" source="NwfZpaaQpDAw_J0AIX61-5" target="NwfZpaaQpDAw_J0AIX61-54">
          <mxGeometry relative="1" as="geometry" />
        </mxCell>
        <mxCell id="NwfZpaaQpDAw_J0AIX61-5" value="&lt;div&gt;Transazione&lt;/div&gt;" style="ellipse;whiteSpace=wrap;html=1;fontSize=16;" vertex="1" parent="1">
          <mxGeometry x="740" y="160" width="120" height="80" as="geometry" />
        </mxCell>
        <mxCell id="NwfZpaaQpDAw_J0AIX61-16" style="edgeStyle=none;curved=1;rounded=0;orthogonalLoop=1;jettySize=auto;html=1;fontSize=12;startSize=8;endSize=8;" edge="1" parent="1" source="NwfZpaaQpDAw_J0AIX61-10" target="NwfZpaaQpDAw_J0AIX61-15">
          <mxGeometry relative="1" as="geometry" />
        </mxCell>
        <mxCell id="NwfZpaaQpDAw_J0AIX61-17" style="edgeStyle=none;curved=1;rounded=0;orthogonalLoop=1;jettySize=auto;html=1;fontSize=12;startSize=8;endSize=8;" edge="1" parent="1" source="NwfZpaaQpDAw_J0AIX61-10" target="NwfZpaaQpDAw_J0AIX61-12">
          <mxGeometry relative="1" as="geometry" />
        </mxCell>
        <mxCell id="NwfZpaaQpDAw_J0AIX61-19" style="edgeStyle=none;curved=1;rounded=0;orthogonalLoop=1;jettySize=auto;html=1;fontSize=12;startSize=8;endSize=8;" edge="1" parent="1" source="NwfZpaaQpDAw_J0AIX61-10" target="NwfZpaaQpDAw_J0AIX61-18">
          <mxGeometry relative="1" as="geometry" />
        </mxCell>
        <mxCell id="NwfZpaaQpDAw_J0AIX61-31" style="edgeStyle=none;curved=1;rounded=0;orthogonalLoop=1;jettySize=auto;html=1;fontSize=12;startSize=8;endSize=8;" edge="1" parent="1" source="NwfZpaaQpDAw_J0AIX61-10" target="NwfZpaaQpDAw_J0AIX61-3">
          <mxGeometry relative="1" as="geometry" />
        </mxCell>
        <mxCell id="NwfZpaaQpDAw_J0AIX61-38" style="edgeStyle=none;curved=1;rounded=0;orthogonalLoop=1;jettySize=auto;html=1;fontSize=12;startSize=8;endSize=8;" edge="1" parent="1" source="NwfZpaaQpDAw_J0AIX61-10" target="NwfZpaaQpDAw_J0AIX61-36">
          <mxGeometry relative="1" as="geometry" />
        </mxCell>
        <mxCell id="NwfZpaaQpDAw_J0AIX61-59" value="" style="edgeStyle=none;curved=1;rounded=0;orthogonalLoop=1;jettySize=auto;html=1;fontSize=12;startSize=8;endSize=8;" edge="1" parent="1" source="NwfZpaaQpDAw_J0AIX61-10" target="NwfZpaaQpDAw_J0AIX61-58">
          <mxGeometry relative="1" as="geometry" />
        </mxCell>
        <mxCell id="NwfZpaaQpDAw_J0AIX61-10" value="&lt;div&gt;Prodotto&lt;/div&gt;" style="whiteSpace=wrap;html=1;fontSize=16;" vertex="1" parent="1">
          <mxGeometry x="355" y="400" width="120" height="60" as="geometry" />
        </mxCell>
        <mxCell id="NwfZpaaQpDAw_J0AIX61-12" value="Tabacchi" style="rounded=1;whiteSpace=wrap;html=1;fontSize=16;" vertex="1" parent="1">
          <mxGeometry x="227" y="513" width="120" height="60" as="geometry" />
        </mxCell>
        <mxCell id="NwfZpaaQpDAw_J0AIX61-15" value="Cartoleria" style="rounded=1;whiteSpace=wrap;html=1;fontSize=16;" vertex="1" parent="1">
          <mxGeometry x="355" y="532.5" width="120" height="60" as="geometry" />
        </mxCell>
        <mxCell id="NwfZpaaQpDAw_J0AIX61-21" value="" style="edgeStyle=none;curved=1;rounded=0;orthogonalLoop=1;jettySize=auto;html=1;fontSize=12;startSize=8;endSize=8;" edge="1" parent="1" source="NwfZpaaQpDAw_J0AIX61-18" target="NwfZpaaQpDAw_J0AIX61-20">
          <mxGeometry relative="1" as="geometry" />
        </mxCell>
        <mxCell id="NwfZpaaQpDAw_J0AIX61-22" value="" style="edgeStyle=none;curved=1;rounded=0;orthogonalLoop=1;jettySize=auto;html=1;fontSize=12;startSize=8;endSize=8;" edge="1" parent="1" source="NwfZpaaQpDAw_J0AIX61-18" target="NwfZpaaQpDAw_J0AIX61-20">
          <mxGeometry relative="1" as="geometry" />
        </mxCell>
        <mxCell id="NwfZpaaQpDAw_J0AIX61-25" style="edgeStyle=none;curved=1;rounded=0;orthogonalLoop=1;jettySize=auto;html=1;fontSize=12;startSize=8;endSize=8;" edge="1" parent="1" source="NwfZpaaQpDAw_J0AIX61-18" target="NwfZpaaQpDAw_J0AIX61-23">
          <mxGeometry relative="1" as="geometry" />
        </mxCell>
        <mxCell id="NwfZpaaQpDAw_J0AIX61-27" style="edgeStyle=none;curved=1;rounded=0;orthogonalLoop=1;jettySize=auto;html=1;fontSize=12;startSize=8;endSize=8;" edge="1" parent="1" source="NwfZpaaQpDAw_J0AIX61-18" target="NwfZpaaQpDAw_J0AIX61-26">
          <mxGeometry relative="1" as="geometry" />
        </mxCell>
        <mxCell id="NwfZpaaQpDAw_J0AIX61-18" value="&lt;div&gt;Alimentari&lt;/div&gt;" style="rounded=1;whiteSpace=wrap;html=1;fontSize=16;" vertex="1" parent="1">
          <mxGeometry x="483" y="513" width="120" height="60" as="geometry" />
        </mxCell>
        <mxCell id="NwfZpaaQpDAw_J0AIX61-20" value="&lt;div&gt;Snacks&lt;/div&gt;" style="whiteSpace=wrap;html=1;fontSize=16;rounded=1;" vertex="1" parent="1">
          <mxGeometry x="659" y="513" width="120" height="60" as="geometry" />
        </mxCell>
        <mxCell id="NwfZpaaQpDAw_J0AIX61-23" value="&lt;div&gt;Bevande&lt;/div&gt;" style="rounded=1;whiteSpace=wrap;html=1;fontSize=16;" vertex="1" parent="1">
          <mxGeometry x="659" y="614" width="120" height="60" as="geometry" />
        </mxCell>
        <mxCell id="NwfZpaaQpDAw_J0AIX61-26" value="&lt;div&gt;Gomme e&lt;br&gt;&lt;/div&gt;&lt;div&gt;Caramelle&lt;/div&gt;" style="rounded=1;whiteSpace=wrap;html=1;fontSize=16;" vertex="1" parent="1">
          <mxGeometry x="483" y="614" width="120" height="60" as="geometry" />
        </mxCell>
        <mxCell id="NwfZpaaQpDAw_J0AIX61-30" style="edgeStyle=none;curved=1;rounded=0;orthogonalLoop=1;jettySize=auto;html=1;fontSize=12;startSize=8;endSize=8;" edge="1" parent="1" source="NwfZpaaQpDAw_J0AIX61-28" target="NwfZpaaQpDAw_J0AIX61-10">
          <mxGeometry relative="1" as="geometry" />
        </mxCell>
        <mxCell id="NwfZpaaQpDAw_J0AIX61-78" style="edgeStyle=none;curved=1;rounded=0;orthogonalLoop=1;jettySize=auto;html=1;fontSize=12;startSize=8;endSize=8;" edge="1" parent="1" source="NwfZpaaQpDAw_J0AIX61-28" target="NwfZpaaQpDAw_J0AIX61-5">
          <mxGeometry relative="1" as="geometry">
            <Array as="points">
              <mxPoint x="507" y="7" />
            </Array>
          </mxGeometry>
        </mxCell>
        <mxCell id="NwfZpaaQpDAw_J0AIX61-28" value="&lt;div&gt;Cliente&lt;/div&gt;" style="rounded=0;whiteSpace=wrap;html=1;fontSize=16;" vertex="1" parent="1">
          <mxGeometry x="166" y="170" width="120" height="60" as="geometry" />
        </mxCell>
        <mxCell id="NwfZpaaQpDAw_J0AIX61-76" style="edgeStyle=none;curved=1;rounded=0;orthogonalLoop=1;jettySize=auto;html=1;fontSize=12;startSize=8;endSize=8;" edge="1" parent="1" source="NwfZpaaQpDAw_J0AIX61-36" target="NwfZpaaQpDAw_J0AIX61-74">
          <mxGeometry relative="1" as="geometry" />
        </mxCell>
        <mxCell id="NwfZpaaQpDAw_J0AIX61-77" style="edgeStyle=none;curved=1;rounded=0;orthogonalLoop=1;jettySize=auto;html=1;fontSize=12;startSize=8;endSize=8;" edge="1" parent="1" source="NwfZpaaQpDAw_J0AIX61-36" target="NwfZpaaQpDAw_J0AIX61-75">
          <mxGeometry relative="1" as="geometry" />
        </mxCell>
        <mxCell id="NwfZpaaQpDAw_J0AIX61-36" value="Giochi" style="rounded=0;whiteSpace=wrap;html=1;fontSize=16;" vertex="1" parent="1">
          <mxGeometry x="166" y="400" width="120" height="60" as="geometry" />
        </mxCell>
        <mxCell id="NwfZpaaQpDAw_J0AIX61-51" value="&lt;div&gt;Contanti&lt;/div&gt;" style="ellipse;whiteSpace=wrap;html=1;fontSize=16;" vertex="1" parent="1">
          <mxGeometry x="957" y="108.5" width="80" height="80" as="geometry" />
        </mxCell>
        <mxCell id="NwfZpaaQpDAw_J0AIX61-54" value="&lt;div&gt;Carte e Bancomat&lt;/div&gt;" style="ellipse;whiteSpace=wrap;html=1;aspect=fixed;fontSize=16;" vertex="1" parent="1">
          <mxGeometry x="957" y="211.5" width="80" height="80" as="geometry" />
        </mxCell>
        <mxCell id="NwfZpaaQpDAw_J0AIX61-70" style="edgeStyle=none;curved=1;rounded=0;orthogonalLoop=1;jettySize=auto;html=1;fontSize=12;startSize=8;endSize=8;" edge="1" parent="1" source="NwfZpaaQpDAw_J0AIX61-58" target="NwfZpaaQpDAw_J0AIX61-62">
          <mxGeometry relative="1" as="geometry" />
        </mxCell>
        <mxCell id="NwfZpaaQpDAw_J0AIX61-71" style="edgeStyle=none;curved=1;rounded=0;orthogonalLoop=1;jettySize=auto;html=1;fontSize=12;startSize=8;endSize=8;" edge="1" parent="1" source="NwfZpaaQpDAw_J0AIX61-58" target="NwfZpaaQpDAw_J0AIX61-61">
          <mxGeometry relative="1" as="geometry" />
        </mxCell>
        <mxCell id="NwfZpaaQpDAw_J0AIX61-72" style="edgeStyle=none;curved=1;rounded=0;orthogonalLoop=1;jettySize=auto;html=1;fontSize=12;startSize=8;endSize=8;" edge="1" parent="1" source="NwfZpaaQpDAw_J0AIX61-58" target="NwfZpaaQpDAw_J0AIX61-64">
          <mxGeometry relative="1" as="geometry" />
        </mxCell>
        <mxCell id="NwfZpaaQpDAw_J0AIX61-73" style="edgeStyle=none;curved=1;rounded=0;orthogonalLoop=1;jettySize=auto;html=1;fontSize=12;startSize=8;endSize=8;" edge="1" parent="1" source="NwfZpaaQpDAw_J0AIX61-58" target="NwfZpaaQpDAw_J0AIX61-65">
          <mxGeometry relative="1" as="geometry" />
        </mxCell>
        <mxCell id="NwfZpaaQpDAw_J0AIX61-58" value="Servizi ausiliari" style="whiteSpace=wrap;html=1;fontSize=16;" vertex="1" parent="1">
          <mxGeometry x="551" y="400" width="120" height="60" as="geometry" />
        </mxCell>
        <mxCell id="NwfZpaaQpDAw_J0AIX61-61" value="Bollette" style="rounded=1;whiteSpace=wrap;html=1;fontSize=16;" vertex="1" parent="1">
          <mxGeometry x="807" y="362" width="120" height="60" as="geometry" />
        </mxCell>
        <mxCell id="NwfZpaaQpDAw_J0AIX61-62" value="Ricariche Telefoniche" style="rounded=1;whiteSpace=wrap;html=1;fontSize=16;" vertex="1" parent="1">
          <mxGeometry x="807" y="285" width="120" height="60" as="geometry" />
        </mxCell>
        <mxCell id="NwfZpaaQpDAw_J0AIX61-64" value="Multe" style="rounded=1;whiteSpace=wrap;html=1;fontSize=16;" vertex="1" parent="1">
          <mxGeometry x="807" y="439" width="120" height="60" as="geometry" />
        </mxCell>
        <mxCell id="NwfZpaaQpDAw_J0AIX61-68" style="edgeStyle=none;curved=1;rounded=0;orthogonalLoop=1;jettySize=auto;html=1;fontSize=12;startSize=8;endSize=8;" edge="1" parent="1" source="NwfZpaaQpDAw_J0AIX61-65" target="NwfZpaaQpDAw_J0AIX61-66">
          <mxGeometry relative="1" as="geometry" />
        </mxCell>
        <mxCell id="NwfZpaaQpDAw_J0AIX61-69" style="edgeStyle=none;curved=1;rounded=0;orthogonalLoop=1;jettySize=auto;html=1;fontSize=12;startSize=8;endSize=8;" edge="1" parent="1" source="NwfZpaaQpDAw_J0AIX61-65" target="NwfZpaaQpDAw_J0AIX61-67">
          <mxGeometry relative="1" as="geometry" />
        </mxCell>
        <mxCell id="NwfZpaaQpDAw_J0AIX61-65" value="Operazioni su carte di credito" style="rounded=0;whiteSpace=wrap;html=1;fontSize=16;" vertex="1" parent="1">
          <mxGeometry x="807" y="516" width="120" height="60" as="geometry" />
        </mxCell>
        <mxCell id="NwfZpaaQpDAw_J0AIX61-66" value="&lt;div&gt;Prelievo&lt;/div&gt;" style="rounded=1;whiteSpace=wrap;html=1;fontSize=16;" vertex="1" parent="1">
          <mxGeometry x="969" y="473" width="120" height="60" as="geometry" />
        </mxCell>
        <mxCell id="NwfZpaaQpDAw_J0AIX61-67" value="Deposito" style="rounded=1;whiteSpace=wrap;html=1;fontSize=16;" vertex="1" parent="1">
          <mxGeometry x="969" y="554" width="120" height="60" as="geometry" />
        </mxCell>
        <mxCell id="NwfZpaaQpDAw_J0AIX61-74" value="Estrazione in tempo reale" style="rounded=0;whiteSpace=wrap;html=1;fontSize=16;" vertex="1" parent="1">
          <mxGeometry x="-5" y="354" width="120" height="60" as="geometry" />
        </mxCell>
        <mxCell id="NwfZpaaQpDAw_J0AIX61-75" value="Estrazione programmata" style="rounded=0;whiteSpace=wrap;html=1;fontSize=16;" vertex="1" parent="1">
          <mxGeometry x="-5" y="446" width="120" height="60" as="geometry" />
        </mxCell>
      </root>
    </mxGraphModel>
  </diagram>
</mxfile>
